<svg xmlns="http://www.w3.org/2000/svg" viewBox="0 0 327.54 357.39"><defs><style>.cls-1{fill:#3a3837;}.cls-16,.cls-2,.cls-21{fill:none;}.cls-3{fill:#d1d3db;}.cls-4{fill:#b5f447;}.cls-5{fill:#fffeeb;}.cls-6{fill:#e0bb07;}.cls-7{fill:#69c4ae;}.cls-8{fill:#e58383;}.cls-9{fill:#4a80ce;}.cls-10{fill:#f45e22;}.cls-11{fill:#4cabf2;}.cls-12{fill:#daeaef;}.cls-13{fill:#d9e842;}.cls-14{fill:#b5082d;}.cls-14,.cls-15{stroke:#ea183c;}.cls-14,.cls-15,.cls-16,.cls-21{stroke-miterlimit:10;}.cls-15{fill:#ea183c;}.cls-16{stroke:#baaaaf;stroke-width:4px;}.cls-16,.cls-21{stroke-linecap:round;}.cls-17{fill:#eaac3c;}.cls-18{fill:#49bfe8;}.cls-19{fill:#efd7c5;}.cls-20{fill:#b18ce0;}.cls-21{stroke:#82777b;stroke-width:2px;}.cls-22{font-size:6px;fill:#534741;font-family:Luna;}.cls-23{fill:#eef257;}</style></defs><title>dog-things-background</title><g id="Layer_2" data-name="Layer 2"><rect class="cls-1" x="-3.58" y="-7.99" width="335.08" height="373.53"/></g><g id="Layer_1" data-name="Layer 1"><rect class="cls-2" width="327.54" height="357.39"/><path class="cls-3" d="M242.27,284.42a7.53,7.53,0,0,1-13.34,7c-.09-.17-.16-.34-.24-.52l-32,16.83a7.54,7.54,0,1,1-12.45-1.33,7.54,7.54,0,1,1,6-11,6.3,6.3,0,0,1,.37.84l32-16.84-.17-.3a7.54,7.54,0,1,1,12.43,1.35A7.48,7.48,0,0,1,242.27,284.42Z"/><path class="cls-4" d="M276.37,329.86a22.31,22.31,0,0,1-3,11.33,12.55,12.55,0,0,1-.84,1.18c-.21.27-.43.51-.64.78h0a19.46,19.46,0,0,1-2.26,2.19,19.81,19.81,0,1,1,0-30.67,20.78,20.78,0,0,1,2.3,2.2l.64.77a14,14,0,0,1,.84,1.18A21.16,21.16,0,0,1,276.37,329.86Z"/><path class="cls-5" d="M276.37,329.86a22.31,22.31,0,0,1-3,11.33,12.55,12.55,0,0,1-.84,1.18c-.21.27-.43.51-.64.78h0a19.46,19.46,0,0,1-2.26,2.19c-.91.06-1.83.1-2.76.1-13.67,0-24.76-6.9-24.76-15.43s11.09-15.44,24.76-15.44c.92,0,1.84,0,2.74.1a20.78,20.78,0,0,1,2.3,2.2l.64.77a14,14,0,0,1,.84,1.18A21.16,21.16,0,0,1,276.37,329.86Z"/><path class="cls-4" d="M276.37,329.86a22.31,22.31,0,0,1-3,11.33,12.55,12.55,0,0,1-.84,1.18c-.21.27-.43.51-.64.78h0a32.65,32.65,0,0,1-5,.38c-12,0-21.7-6.06-21.7-13.52s9.72-13.52,21.7-13.52a32.91,32.91,0,0,1,5,.38l.64.77a14,14,0,0,1,.84,1.18A21.16,21.16,0,0,1,276.37,329.86Z"/><path class="cls-6" d="M227.77,310.28a.44.44,0,0,1-.44.44h-2.84l2,2a.45.45,0,0,1-.63.63l-2-2v2.84a.44.44,0,1,1-.88,0v-2.84l-2,2a.45.45,0,0,1-.63-.63l2-2h-2.84a.44.44,0,0,1-.44-.44.44.44,0,0,1,.44-.44h2.85l-2-2a.44.44,0,0,1,.32-.75.43.43,0,0,1,.31.13l2,2v-2.84a.44.44,0,1,1,.88,0v2.84l2-2a.45.45,0,0,1,.32-.13.42.42,0,0,1,.31.13.44.44,0,0,1,0,.62l-2,2h2.85A.43.43,0,0,1,227.77,310.28Z"/><path class="cls-7" d="M171.53,331.52a2.56,2.56,0,0,0-3.46.46,2.49,2.49,0,0,0-.14,3.49,2.48,2.48,0,0,0-3.46.45,2.75,2.75,0,0,0-.15,3.49c1.76,2.82,8.67.69,8.67.69S174.11,333.52,171.53,331.52Z"/><path class="cls-8" d="M213,352.7a4.74,4.74,0,0,1-5.86,2.74c-2.64-.71-4.3-3.09-3.7-5.31-.6,2.22-3.22,3.45-5.86,2.74s-3.69-3-3.71-5.3c0-4.23,6-7.23,9.84-8.7a4.3,4.3,0,0,1,5,1.43C211.05,343.42,214.4,348.86,213,352.7Z"/><ellipse class="cls-8" cx="204.02" cy="332.8" rx="3.8" ry="2.72" transform="translate(-170.23 443.79) rotate(-75.01)"/><ellipse class="cls-8" cx="211.95" cy="334.93" rx="3.8" ry="2.72" transform="translate(-166.41 453.02) rotate(-75.01)"/><ellipse class="cls-8" cx="196.06" cy="335.95" rx="3.8" ry="2.72" transform="matrix(0.26, -0.97, 0.97, 0.26, -179.18, 438.44)"/><ellipse class="cls-8" cx="217.24" cy="341.63" rx="3.8" ry="2.72" transform="translate(-168.96 463.09) rotate(-75.01)"/><path class="cls-9" d="M295.71,368.1a4.73,4.73,0,0,1,2.4-6c2.41-1.29,5.25-.69,6.33,1.33-1.08-2,0-4.71,2.4-6s4.73-.35,6.33,1.33c2.92,3.06.55,9.4-1.23,13.08a4.29,4.29,0,0,1-4.62,2.37C303.49,373.51,297.33,371.84,295.71,368.1Z"/><path class="cls-10" d="M326,317.2a15.32,15.32,0,0,0-4.39-3.57h0c-.48-.27-1-.53-1.46-.77a29.84,29.84,0,0,1-5.27-7.34A34.24,34.24,0,0,1,311.7,298a16.62,16.62,0,0,0-.52-7.33c-.51-1.52-1.49-3.16-3.18-3.53a2.35,2.35,0,0,0-1.59.18l-.06,0a4.24,4.24,0,0,0-1.81,3.28,5.22,5.22,0,0,0,.17,1.67,5.25,5.25,0,0,0-1.37-1,4.23,4.23,0,0,0-3.75,0l0,0a2.38,2.38,0,0,0-.93,1.29c-.51,1.66.44,3.32,1.52,4.51a17,17,0,0,0,6.44,4.16,36.32,36.32,0,0,1,4.32,6.38,31.45,31.45,0,0,1,3.32,8.12,16.92,16.92,0,0,0,.16,7.43c.45,1.58,1.37,3.31,3.08,3.78a2.49,2.49,0,0,0,1.64-.1l.05,0a4.3,4.3,0,0,0,2-3.26,5.46,5.46,0,0,0-.09-1.71,5.55,5.55,0,0,0,1.35,1.06,4.3,4.3,0,0,0,3.84.21l.05,0a2.44,2.44,0,0,0,1-1.28C328,320.22,327.06,318.48,326,317.2Z"/><path class="cls-11" d="M283.51,279.36a2.8,2.8,0,0,0-1.43-1.2l-.07,0a4.89,4.89,0,0,0-4.23,1.1,6,6,0,0,0-1.27,1.49,6.33,6.33,0,0,0-.28-1.94,4.94,4.94,0,0,0-3-3.19l-.07,0a2.83,2.83,0,0,0-1.85.26c-1.81.9-2.45,3-2.59,4.91-.37,4.78,1.76,9.35,3.84,13.66h0c4.05-2.54,8.29-5.27,10.53-9.51C284,283.24,284.56,281.09,283.51,279.36Z"/><path class="cls-12" d="M296.66,316.24a.44.44,0,0,1-.44.44h-2.84l2,2a.45.45,0,0,1-.63.63l-2-2v2.84a.44.44,0,1,1-.88,0v-2.84l-2,2a.45.45,0,0,1-.63-.63l2-2H288.4a.44.44,0,0,1-.44-.44.44.44,0,0,1,.44-.44h2.85l-2-2a.44.44,0,0,1,.32-.75.43.43,0,0,1,.31.13l2,2v-2.84a.44.44,0,1,1,.88,0v2.84l2-2a.45.45,0,0,1,.32-.13.42.42,0,0,1,.31.13.44.44,0,0,1,0,.62l-2,2h2.85A.43.43,0,0,1,296.66,316.24Z"/><path class="cls-3" d="M78.5,284.42a7.53,7.53,0,0,1-13.34,7c-.09-.17-.16-.34-.24-.52l-32,16.83a7.54,7.54,0,1,1-12.45-1.33,7.54,7.54,0,1,1,6-11,8,8,0,0,1,.38.84l32-16.84a3.4,3.4,0,0,1-.18-.3,7.54,7.54,0,1,1,12.43,1.35A7.48,7.48,0,0,1,78.5,284.42Z"/><path class="cls-4" d="M112.6,329.86a22.31,22.31,0,0,1-3,11.33,12.55,12.55,0,0,1-.84,1.18c-.21.27-.43.51-.64.78h0a19.46,19.46,0,0,1-2.26,2.19,19.81,19.81,0,1,1,0-30.67,20.78,20.78,0,0,1,2.3,2.2l.64.77a14,14,0,0,1,.84,1.18A21.16,21.16,0,0,1,112.6,329.86Z"/><path class="cls-5" d="M112.6,329.86a22.31,22.31,0,0,1-3,11.33,12.55,12.55,0,0,1-.84,1.18c-.21.27-.43.51-.64.78h0a19.46,19.46,0,0,1-2.26,2.19c-.91.06-1.83.1-2.76.1-13.67,0-24.76-6.9-24.76-15.43s11.09-15.44,24.76-15.44c.92,0,1.84,0,2.74.1a20.78,20.78,0,0,1,2.3,2.2l.64.77a14,14,0,0,1,.84,1.18A21.16,21.16,0,0,1,112.6,329.86Z"/><path class="cls-4" d="M112.6,329.86a22.31,22.31,0,0,1-3,11.33,12.55,12.55,0,0,1-.84,1.18c-.21.27-.43.51-.64.78h0a32.65,32.65,0,0,1-5,.38c-12,0-21.7-6.06-21.7-13.52s9.72-13.52,21.7-13.52a32.91,32.91,0,0,1,5,.38l.64.77a14,14,0,0,1,.84,1.18A21.16,21.16,0,0,1,112.6,329.86Z"/><path class="cls-6" d="M64,310.28a.44.44,0,0,1-.44.44H60.72l2,2a.45.45,0,0,1-.63.63l-2-2v2.84a.44.44,0,1,1-.88,0v-2.84l-2,2a.45.45,0,0,1-.63-.63l2-2H55.74a.44.44,0,0,1-.44-.44.44.44,0,0,1,.44-.44h2.85l-2-2a.44.44,0,0,1,.32-.75.43.43,0,0,1,.31.13l2,2v-2.84a.44.44,0,1,1,.88,0v2.84l2-2a.45.45,0,0,1,.32-.13.42.42,0,0,1,.31.13.44.44,0,0,1,0,.62l-2,2h2.85A.43.43,0,0,1,64,310.28Z"/><path class="cls-7" d="M7.76,331.52A2.56,2.56,0,0,0,4.3,332a2.49,2.49,0,0,0-.14,3.49,2.48,2.48,0,0,0-3.46.45,2.75,2.75,0,0,0-.15,3.49c1.76,2.82,8.67.69,8.67.69S10.34,333.52,7.76,331.52Z"/><path class="cls-8" d="M49.25,352.7a4.74,4.74,0,0,1-5.86,2.74c-2.64-.71-4.3-3.09-3.7-5.31-.6,2.22-3.22,3.45-5.86,2.74s-3.69-3-3.71-5.3c0-4.23,6-7.23,9.84-8.7a4.3,4.3,0,0,1,5,1.43C47.28,343.42,50.63,348.86,49.25,352.7Z"/><ellipse class="cls-8" cx="40.25" cy="332.8" rx="3.8" ry="2.72" transform="translate(-291.63 285.59) rotate(-75.01)"/><ellipse class="cls-8" cx="48.18" cy="334.93" rx="3.8" ry="2.72" transform="translate(-287.81 294.82) rotate(-75.01)"/><ellipse class="cls-8" cx="32.29" cy="335.95" rx="3.8" ry="2.72" transform="translate(-300.58 280.24) rotate(-75.01)"/><ellipse class="cls-8" cx="53.47" cy="341.63" rx="3.8" ry="2.72" transform="translate(-290.36 304.9) rotate(-75.01)"/><path class="cls-9" d="M131.94,368.1a4.73,4.73,0,0,1,2.4-6c2.41-1.29,5.25-.69,6.33,1.33-1.08-2,0-4.71,2.4-6s4.73-.35,6.33,1.33c2.92,3.06.55,9.4-1.23,13.08a4.29,4.29,0,0,1-4.62,2.37C139.72,373.51,133.56,371.84,131.94,368.1Z"/><path class="cls-10" d="M162.25,317.2a15.32,15.32,0,0,0-4.39-3.57h0c-.48-.27-1-.53-1.46-.77a29.84,29.84,0,0,1-5.27-7.34,34.24,34.24,0,0,1-3.18-7.49,16.62,16.62,0,0,0-.52-7.33c-.51-1.52-1.49-3.16-3.18-3.53a2.35,2.35,0,0,0-1.59.18l-.06,0a4.24,4.24,0,0,0-1.81,3.28,5.22,5.22,0,0,0,.17,1.67,5.25,5.25,0,0,0-1.37-1,4.23,4.23,0,0,0-3.75,0l0,0a2.38,2.38,0,0,0-.93,1.29c-.51,1.66.44,3.32,1.52,4.51a17,17,0,0,0,6.44,4.16,36.32,36.32,0,0,1,4.32,6.38,31.45,31.45,0,0,1,3.32,8.12,16.92,16.92,0,0,0,.16,7.43c.45,1.58,1.37,3.31,3.08,3.78a2.49,2.49,0,0,0,1.64-.1l.05,0a4.3,4.3,0,0,0,2-3.26,5.46,5.46,0,0,0-.09-1.71,5.55,5.55,0,0,0,1.35,1.06,4.3,4.3,0,0,0,3.84.21l.05,0a2.44,2.44,0,0,0,1-1.28C164.18,320.22,163.29,318.48,162.25,317.2Z"/><path class="cls-11" d="M119.74,279.36a2.8,2.8,0,0,0-1.43-1.2l-.07,0a4.89,4.89,0,0,0-4.23,1.1,6,6,0,0,0-1.27,1.49,6.33,6.33,0,0,0-.28-1.94,4.94,4.94,0,0,0-3-3.19l-.07,0a2.83,2.83,0,0,0-1.85.26c-1.81.9-2.45,3-2.59,4.91-.37,4.78,1.76,9.35,3.84,13.66h0c4-2.54,8.29-5.27,10.53-9.51C120.19,283.24,120.79,281.09,119.74,279.36Z"/><path class="cls-12" d="M132.89,316.24a.44.44,0,0,1-.44.44h-2.84l2,2a.45.45,0,0,1-.63.63l-2-2v2.84a.44.44,0,0,1-.88,0v-2.84l-2,2a.45.45,0,0,1-.63-.63l2-2h-2.84a.44.44,0,0,1-.44-.44.44.44,0,0,1,.44-.44h2.85l-2-2a.44.44,0,0,1,.32-.75.43.43,0,0,1,.31.13l2,2v-2.84a.44.44,0,1,1,.88,0v2.84l2-2a.45.45,0,0,1,.32-.13.42.42,0,0,1,.31.13.44.44,0,0,1,0,.62l-2,2h2.85A.43.43,0,0,1,132.89,316.24Z"/><path class="cls-3" d="M324.16,105.72a7.54,7.54,0,0,1-13.34,7c-.09-.18-.17-.34-.24-.52l-32,16.82a7.54,7.54,0,1,1-12.45-1.32,7.54,7.54,0,1,1,6-11,8,8,0,0,1,.38.84l32-16.85a2.91,2.91,0,0,1-.17-.3,7.53,7.53,0,1,1,12.43,1.35A7.53,7.53,0,0,1,324.16,105.72Z"/><path class="cls-4" d="M358.26,151.16a22.36,22.36,0,0,1-3,11.34c-.26.41-.54.8-.83,1.18l-.64.77,0,0a18,18,0,0,1-2.27,2.18,19.81,19.81,0,1,1,0-30.67,22.8,22.8,0,0,1,2.3,2.2c.21.27.42.51.64.78s.57.77.83,1.18A21.14,21.14,0,0,1,358.26,151.16Z"/><path class="cls-5" d="M358.26,151.16a22.36,22.36,0,0,1-3,11.34c-.26.41-.54.8-.83,1.18l-.64.77,0,0a18,18,0,0,1-2.27,2.18c-.9.07-1.82.1-2.76.1-13.67,0-24.75-6.9-24.75-15.42s11.08-15.45,24.75-15.45c.92,0,1.84,0,2.75.1a22.8,22.8,0,0,1,2.3,2.2c.21.27.42.51.64.78s.57.77.83,1.18A21.14,21.14,0,0,1,358.26,151.16Z"/><path class="cls-4" d="M358.26,151.16a22.36,22.36,0,0,1-3,11.34c-.26.41-.54.8-.83,1.18l-.64.77,0,0a34.09,34.09,0,0,1-5,.38c-12,0-21.7-6.07-21.7-13.52s9.73-13.52,21.7-13.52a34.38,34.38,0,0,1,5.05.37c.21.27.42.51.64.78s.57.77.83,1.18A21.14,21.14,0,0,1,358.26,151.16Z"/><path class="cls-13" d="M292.8,196.36a12.66,12.66,0,0,1,6.28-2.24,7.45,7.45,0,0,1,.82,0l.57.05h0a11.54,11.54,0,0,1,1.75.35,11.25,11.25,0,1,1-14.34,9.92,12.14,12.14,0,0,1,.29-1.79l.15-.55c.09-.26.18-.52.29-.77A12.12,12.12,0,0,1,292.8,196.36Z"/><path class="cls-5" d="M292.8,196.36a12.66,12.66,0,0,1,6.28-2.24,7.45,7.45,0,0,1,.82,0l.57.05h0a11.54,11.54,0,0,1,1.75.35c.32.4.63.82.94,1.26,4.41,6.39,4.77,13.81.78,16.56s-10.8-.2-15.22-6.59c-.29-.43-.58-.87-.84-1.31a12.14,12.14,0,0,1,.29-1.79l.15-.55c.09-.26.18-.52.29-.77A12.12,12.12,0,0,1,292.8,196.36Z"/><path class="cls-13" d="M292.8,196.36a12.66,12.66,0,0,1,6.28-2.24,7.45,7.45,0,0,1,.82,0l.57.05h0a19.45,19.45,0,0,1,1.8,2.23c3.86,5.6,4.17,12.1.68,14.51s-9.46-.18-13.33-5.78a18.58,18.58,0,0,1-1.45-2.48l.15-.55c.09-.26.18-.52.29-.77A12.12,12.12,0,0,1,292.8,196.36Z"/><path class="cls-6" d="M309.65,131.59a.44.44,0,0,1-.44.44h-2.84l2,2a.45.45,0,0,1-.63.63l-2-2v2.84a.44.44,0,1,1-.88,0v-2.84l-2,2a.45.45,0,0,1-.63-.63l2-2h-2.84a.44.44,0,0,1-.44-.44.44.44,0,0,1,.44-.44h2.85l-2-2a.44.44,0,0,1,.32-.75.43.43,0,0,1,.31.13l2,2v-2.84a.44.44,0,1,1,.88,0v2.84l2-2a.45.45,0,0,1,.32-.13.42.42,0,0,1,.31.13.44.44,0,0,1,0,.62l-2,2h2.85A.43.43,0,0,1,309.65,131.59Z"/><path class="cls-7" d="M253.42,152.83a2.56,2.56,0,0,0-3.46.45,2.49,2.49,0,0,0-.15,3.49,2.48,2.48,0,0,0-3.46.46,2.75,2.75,0,0,0-.15,3.48c1.76,2.82,8.67.7,8.67.7S256,154.82,253.42,152.83Z"/><path class="cls-8" d="M294.91,174a4.73,4.73,0,0,1-5.86,2.74c-2.64-.71-4.3-3.08-3.71-5.3-.59,2.22-3.22,3.45-5.86,2.74s-3.68-3-3.7-5.3c0-4.23,6-7.23,9.84-8.7a4.27,4.27,0,0,1,5,1.43C292.93,164.73,296.28,170.16,294.91,174Z"/><ellipse class="cls-8" cx="285.91" cy="154.11" rx="3.8" ry="2.72" transform="translate(63.08 390.42) rotate(-75.01)"/><ellipse class="cls-8" cx="293.83" cy="156.23" rx="3.8" ry="2.72" transform="translate(66.91 399.65) rotate(-75.01)"/><ellipse class="cls-8" cx="277.95" cy="157.26" rx="3.8" ry="2.72" transform="translate(54.14 385.06) rotate(-75.01)"/><ellipse class="cls-8" cx="299.12" cy="162.93" rx="3.8" ry="2.72" transform="translate(64.36 409.72) rotate(-75.01)"/><path class="cls-14" d="M374.5,210.32l-3.27.23c-4,.31-11.75,1.09-21.29,2.28-7.17.89-14.4,1.9-21.26,4.3a72.54,72.54,0,0,0-9.78,4.37c-3,1.57-5.92,3.23-8.77,5-2.64,1.62-8.67,5.22-8.61,5.44a47.46,47.46,0,0,0,2.3,6.15c.43,1,1.5,3.8,3.07,2.8,2.67-1.7,5.37-3.38,8.12-5,.91-.54,1.84-1.07,2.76-1.6,13-7.73,29.43-11.51,44.35-12.44.81,0,1.63,0,2.45,0,3.27,0,6.52.14,9.74.39.7,0,1.4,0,2.1.08a7,7,0,0,0,.12-3.53,33.92,33.92,0,0,0-1-4.75C375.29,213.07,375,211.82,374.5,210.32Z"/><path class="cls-15" d="M379.84,222.34l-3.07,1.57c-9.5,4.34-18.89,9.21-29,13.17-1.13.44-2.27.87-3.41,1.29-12.64,5.21-41.55,5-41.55,5l-1.11-4c-.86-3.62-1.65-8.12.61-7.89,3.33.09,6.68.15,10.05.12,1.12,0,2.24,0,3.36,0,15.95-.07,32.78-5.59,46.71-12.88.75-.41,1.49-.85,2.23-1.29,2.94-1.78,5.79-3.68,8.55-5.67.62-.4,1.13-.77,1.75-1.18,1.91,1.61,2.37,4.05,3.84,8Z"/><path class="cls-16" d="M331.19,227.25a9,9,0,0,0,5.29,16.92"/><path class="cls-17" d="M335.16,244.41A12,12,0,1,0,350,252.8,12,12,0,0,0,335.16,244.41Zm1.92,7A2.78,2.78,0,1,1,339,248,2.77,2.77,0,0,1,337.08,251.37Z"/><path class="cls-18" d="M269.05,243.38a.44.44,0,0,1-.44.44h-2.84l2,2a.45.45,0,0,1-.63.63l-2-2v2.84a.44.44,0,1,1-.88,0v-2.84l-2,2a.45.45,0,0,1-.63-.63l2-2h-2.84a.44.44,0,0,1-.44-.44.44.44,0,0,1,.44-.44h2.85l-2-2a.44.44,0,0,1,.32-.75.43.43,0,0,1,.31.13l2,2v-2.84a.44.44,0,1,1,.88,0v2.84l2-2a.45.45,0,0,1,.32-.13.42.42,0,0,1,.31.13.44.44,0,0,1,0,.62l-2,2h2.85A.43.43,0,0,1,269.05,243.38Z"/><path class="cls-19" d="M266.58,210.32a.47.47,0,0,1-.47.46h-3.42v3.42a.46.46,0,0,1-.46.47.47.47,0,0,1-.47-.47v-3.42h-3.42a.47.47,0,1,1,0-.93h3.42v-3.43a.46.46,0,0,1,.47-.45.45.45,0,0,1,.46.45v3.43h3.42A.47.47,0,0,1,266.58,210.32Z"/><path class="cls-3" d="M160.39,105.72a7.54,7.54,0,1,1-13.34,7c-.09-.18-.17-.34-.24-.52L114.8,129a7.54,7.54,0,1,1-12.45-1.32,7.54,7.54,0,1,1,6-11,8,8,0,0,1,.38.84l32-16.85a2.91,2.91,0,0,1-.17-.3A7.53,7.53,0,1,1,153,101.74,7.53,7.53,0,0,1,160.39,105.72Z"/><path class="cls-4" d="M194.49,151.16a22.36,22.36,0,0,1-3,11.34c-.26.41-.54.8-.83,1.18l-.64.77,0,0a18,18,0,0,1-2.27,2.18,19.81,19.81,0,1,1,0-30.67,22.8,22.8,0,0,1,2.3,2.2c.21.27.42.51.64.78s.57.77.83,1.18A21.14,21.14,0,0,1,194.49,151.16Z"/><path class="cls-5" d="M194.49,151.16a22.36,22.36,0,0,1-3,11.34c-.26.41-.54.8-.83,1.18l-.64.77,0,0a18,18,0,0,1-2.27,2.18c-.9.07-1.82.1-2.76.1-13.67,0-24.75-6.9-24.75-15.42s11.08-15.45,24.75-15.45c.92,0,1.84,0,2.75.1a22.8,22.8,0,0,1,2.3,2.2c.21.27.42.51.64.78s.57.77.83,1.18A21.14,21.14,0,0,1,194.49,151.16Z"/><path class="cls-4" d="M194.49,151.16a22.36,22.36,0,0,1-3,11.34c-.26.41-.54.8-.83,1.18l-.64.77,0,0a34.09,34.09,0,0,1-5,.38c-12,0-21.7-6.07-21.7-13.52s9.73-13.52,21.7-13.52a34.38,34.38,0,0,1,5.05.37c.21.27.42.51.64.78s.57.77.83,1.18A21.14,21.14,0,0,1,194.49,151.16Z"/><path class="cls-13" d="M129,196.36a12.66,12.66,0,0,1,6.28-2.24,7.45,7.45,0,0,1,.82,0l.57.05h0a11.54,11.54,0,0,1,1.75.35,11.25,11.25,0,1,1-14.34,9.92,12.14,12.14,0,0,1,.29-1.79l.15-.55c.09-.26.18-.52.29-.77A12.12,12.12,0,0,1,129,196.36Z"/><path class="cls-5" d="M129,196.36a12.66,12.66,0,0,1,6.28-2.24,7.45,7.45,0,0,1,.82,0l.57.05h0a11.54,11.54,0,0,1,1.75.35c.32.4.63.82.94,1.26,4.41,6.39,4.77,13.81.78,16.56s-10.8-.2-15.22-6.59c-.29-.43-.58-.87-.84-1.31a12.14,12.14,0,0,1,.29-1.79l.15-.55c.09-.26.18-.52.29-.77A12.12,12.12,0,0,1,129,196.36Z"/><path class="cls-13" d="M129,196.36a12.66,12.66,0,0,1,6.28-2.24,7.45,7.45,0,0,1,.82,0l.57.05h0a19.45,19.45,0,0,1,1.8,2.23c3.86,5.6,4.17,12.1.68,14.51s-9.46-.18-13.33-5.78a18.58,18.58,0,0,1-1.45-2.48l.15-.55c.09-.26.18-.52.29-.77A12.12,12.12,0,0,1,129,196.36Z"/><path class="cls-20" d="M180.9,192.92a.46.46,0,0,1-.46.46H177v3.42a.47.47,0,0,1-.94,0v-3.42h-3.42a.47.47,0,0,1,0-.93h3.42V189a.47.47,0,0,1,.94,0v3.42h3.42A.46.46,0,0,1,180.9,192.92Z"/><path class="cls-6" d="M145.88,131.59a.44.44,0,0,1-.44.44H142.6l2,2a.45.45,0,1,1-.63.63l-2-2v2.84a.44.44,0,0,1-.88,0v-2.84l-2,2a.45.45,0,1,1-.63-.63l2-2h-2.84a.44.44,0,0,1-.44-.44.44.44,0,0,1,.44-.44h2.85l-2-2a.44.44,0,0,1,.32-.75.43.43,0,0,1,.31.13l2,2v-2.84a.44.44,0,1,1,.88,0v2.84l2-2a.45.45,0,0,1,.32-.13.42.42,0,0,1,.31.13.44.44,0,0,1,0,.62l-2,2h2.85A.43.43,0,0,1,145.88,131.59Z"/><path class="cls-7" d="M89.65,152.83a2.56,2.56,0,0,0-3.46.45,2.49,2.49,0,0,0-.15,3.49,2.48,2.48,0,0,0-3.46.46,2.76,2.76,0,0,0-.15,3.48c1.76,2.82,8.67.7,8.67.7S92.22,154.82,89.65,152.83Z"/><path class="cls-8" d="M131.14,174a4.73,4.73,0,0,1-5.86,2.74c-2.64-.71-4.3-3.08-3.71-5.3-.59,2.22-3.22,3.45-5.86,2.74s-3.68-3-3.7-5.3c-.05-4.23,6-7.23,9.84-8.7a4.27,4.27,0,0,1,5,1.43C129.16,164.73,132.51,170.16,131.14,174Z"/><ellipse class="cls-8" cx="122.14" cy="154.11" rx="3.8" ry="2.72" transform="matrix(0.26, -0.97, 0.97, 0.26, -58.32, 232.22)"/><ellipse class="cls-8" cx="130.06" cy="156.23" rx="3.8" ry="2.72" transform="translate(-54.5 241.45) rotate(-75.01)"/><ellipse class="cls-8" cx="114.18" cy="157.26" rx="3.8" ry="2.72" transform="matrix(0.26, -0.97, 0.97, 0.26, -67.27, 226.87)"/><ellipse class="cls-8" cx="135.35" cy="162.93" rx="3.8" ry="2.72" transform="translate(-57.05 251.53) rotate(-75.01)"/><path class="cls-9" d="M213.82,189.4a4.73,4.73,0,0,1,2.41-6c2.41-1.3,5.24-.7,6.33,1.33-1.09-2,0-4.72,2.4-6s4.72-.34,6.33,1.34c2.92,3.05.54,9.4-1.23,13.07a4.29,4.29,0,0,1-4.63,2.38C221.61,194.82,215.45,193.14,213.82,189.4Z"/><ellipse class="cls-9" cx="234" cy="197.76" rx="2.72" ry="3.8" transform="translate(-65.63 133.82) rotate(-28.16)"/><ellipse class="cls-9" cx="226.76" cy="201.63" rx="2.72" ry="3.8" transform="translate(-68.31 130.86) rotate(-28.16)"/><ellipse class="cls-9" cx="237.65" cy="190.02" rx="2.72" ry="3.8" transform="translate(-61.54 134.63) rotate(-28.16)"/><ellipse class="cls-9" cx="218.32" cy="200.36" rx="2.72" ry="3.8" transform="translate(-68.71 126.73) rotate(-28.16)"/><path class="cls-14" d="M210.73,210.32l-3.27.23c-4,.31-11.75,1.09-21.29,2.28-7.17.89-14.4,1.9-21.26,4.3a72.54,72.54,0,0,0-9.78,4.37c-3,1.57-5.92,3.23-8.77,5-2.64,1.62-8.67,5.22-8.61,5.44a49,49,0,0,0,2.3,6.15c.43,1,1.5,3.8,3.07,2.8,2.67-1.7,5.37-3.38,8.12-5,.91-.54,1.84-1.07,2.76-1.6,13-7.73,29.43-11.51,44.35-12.44.81,0,1.63,0,2.45,0,3.27,0,6.52.14,9.74.39.7,0,1.4,0,2.1.08a7,7,0,0,0,.12-3.53,33.92,33.92,0,0,0-1-4.75C211.52,213.07,211.18,211.82,210.73,210.32Z"/><line class="cls-16" x1="167.42" y1="227.25" x2="172.72" y2="244.17"/><path class="cls-15" d="M216.07,222.34,213,223.91c-9.5,4.34-18.89,9.21-29,13.17-1.13.44-2.27.87-3.41,1.29-12.64,5.21-41.55,5-41.55,5l-1.11-4c-.86-3.62-1.65-8.12.61-7.89,3.33.09,6.68.15,10.05.12,1.12,0,2.24,0,3.36,0,16-.07,32.78-5.59,46.71-12.88.75-.41,1.49-.85,2.23-1.29,2.94-1.78,5.79-3.68,8.55-5.67.62-.4,1.13-.77,1.75-1.18,1.91,1.61,2.37,4.05,3.84,8Z"/><path class="cls-21" d="M168.47,240a4.7,4.7,0,0,0-3.1,4.75,4.78,4.78,0,0,0,5.5,3.93"/><path class="cls-16" d="M167.42,227.25a9,9,0,0,0,5.3,16.92"/><path class="cls-17" d="M171.39,244.41a12,12,0,1,0,14.8,8.39A12,12,0,0,0,171.39,244.41Zm1.92,7a2.78,2.78,0,1,1,1.93-3.41A2.77,2.77,0,0,1,173.31,251.37Z"/><path class="cls-21" d="M168.55,240a4.69,4.69,0,0,1,5.1,2.48,4.76,4.76,0,0,1-2.7,6.19"/><text class="cls-22" transform="translate(169.94 264.72) rotate(-25.89)">Fido</text><path class="cls-10" d="M244.14,138.51a15.19,15.19,0,0,0-4.4-3.57h0c-.47-.27-1-.53-1.45-.77a30.08,30.08,0,0,1-5.28-7.34,34.63,34.63,0,0,1-3.17-7.49,16.76,16.76,0,0,0-.52-7.33c-.51-1.53-1.5-3.17-3.19-3.53a2.42,2.42,0,0,0-1.59.17l-.05,0a4.2,4.2,0,0,0-1.82,3.28,5.26,5.26,0,0,0,.18,1.67,5.25,5.25,0,0,0-1.37-1,4.19,4.19,0,0,0-3.75,0l-.05,0a2.41,2.41,0,0,0-.93,1.3c-.51,1.66.44,3.32,1.52,4.51a17,17,0,0,0,6.44,4.16A36.49,36.49,0,0,1,229,129a31.45,31.45,0,0,1,3.31,8.11,17.07,17.07,0,0,0,.17,7.43c.44,1.59,1.36,3.32,3.08,3.78a2.41,2.41,0,0,0,1.63-.1l.06,0a4.33,4.33,0,0,0,2-3.26,5.52,5.52,0,0,0-.09-1.72,5.15,5.15,0,0,0,1.35,1.06,4.31,4.31,0,0,0,3.83.22l.06,0a2.53,2.53,0,0,0,1-1.28C246.06,141.53,245.18,139.78,244.14,138.51Z"/><path class="cls-11" d="M201.63,100.67a2.8,2.8,0,0,0-1.43-1.2l-.07,0a4.94,4.94,0,0,0-4.24,1.09,6.47,6.47,0,0,0-1.27,1.49,6,6,0,0,0-.28-1.93,4.92,4.92,0,0,0-3-3.19l-.07,0a2.73,2.73,0,0,0-1.84.26c-1.81.9-2.46,3-2.6,4.91-.37,4.77,1.76,9.34,3.84,13.66h0c4.06-2.54,8.3-5.28,10.53-9.51C202.08,104.55,202.68,102.4,201.63,100.67Z"/><path class="cls-23" d="M228.24,241.57a.47.47,0,0,1-.47.46h-3.42v3.43a.46.46,0,0,1-.46.46.47.47,0,0,1-.47-.46V242H220a.47.47,0,1,1,0-.93h3.42v-3.42a.46.46,0,0,1,.47-.46.45.45,0,0,1,.46.46v3.42h3.42A.47.47,0,0,1,228.24,241.57Z"/><path class="cls-18" d="M105.28,243.38a.44.44,0,0,1-.44.44H102l2,2a.45.45,0,0,1-.63.63l-2-2v2.84a.44.44,0,0,1-.88,0v-2.84l-2,2a.45.45,0,0,1-.63,0,.43.43,0,0,1,0-.63l2-2H97a.44.44,0,0,1-.44-.44.44.44,0,0,1,.44-.44h2.85l-2-2a.42.42,0,0,1,0-.62.4.4,0,0,1,.31-.13.47.47,0,0,1,.32.13l2,2v-2.84a.44.44,0,1,1,.88,0v2.84l2-2a.45.45,0,0,1,.32-.13.42.42,0,0,1,.31.13.44.44,0,0,1,0,.62l-2,2h2.85A.43.43,0,0,1,105.28,243.38Z"/><path class="cls-12" d="M214.78,137.55a.44.44,0,0,1-.44.44H211.5l2,2a.45.45,0,0,1-.63.63l-2-2v2.84a.44.44,0,0,1-.88,0v-2.84l-2,2a.45.45,0,0,1-.63-.63l2-2h-2.84a.44.44,0,0,1-.44-.44.44.44,0,0,1,.44-.44h2.85l-2-2a.44.44,0,0,1,.32-.75.43.43,0,0,1,.31.13l2,2v-2.84a.44.44,0,1,1,.88,0v2.84l2-2a.45.45,0,0,1,.32-.13.42.42,0,0,1,.31.13.44.44,0,0,1,0,.62l-2,2h2.85A.43.43,0,0,1,214.78,137.55Z"/><path class="cls-19" d="M102.81,210.32a.47.47,0,0,1-.47.46H98.92v3.42a.46.46,0,0,1-.46.47.47.47,0,0,1-.47-.47v-3.42H94.57a.47.47,0,1,1,0-.93H98v-3.43a.46.46,0,0,1,.47-.45.45.45,0,0,1,.46.45v3.43h3.42A.47.47,0,0,1,102.81,210.32Z"/><path class="cls-4" d="M30.72,151.16a22.36,22.36,0,0,1-3,11.34c-.26.41-.54.8-.83,1.18l-.64.77,0,0a18,18,0,0,1-2.27,2.18,19.81,19.81,0,1,1,0-30.67,22.8,22.8,0,0,1,2.3,2.2c.21.27.42.51.64.78s.57.77.83,1.18A21.14,21.14,0,0,1,30.72,151.16Z"/><path class="cls-5" d="M30.72,151.16a22.36,22.36,0,0,1-3,11.34c-.26.41-.54.8-.83,1.18l-.64.77,0,0a18,18,0,0,1-2.27,2.18c-.9.07-1.82.1-2.76.1-13.67,0-24.75-6.9-24.75-15.42S7.5,135.88,21.17,135.88c.92,0,1.84,0,2.75.1a22.8,22.8,0,0,1,2.3,2.2c.21.27.42.51.64.78s.57.77.83,1.18A21.14,21.14,0,0,1,30.72,151.16Z"/><path class="cls-4" d="M30.72,151.16a22.36,22.36,0,0,1-3,11.34c-.26.41-.54.8-.83,1.18l-.64.77,0,0a34.09,34.09,0,0,1-5,.38c-12,0-21.7-6.07-21.7-13.52s9.73-13.52,21.7-13.52a34.38,34.38,0,0,1,5,.37c.21.27.42.51.64.78s.57.77.83,1.18A21.14,21.14,0,0,1,30.72,151.16Z"/><path class="cls-20" d="M17.13,192.92a.46.46,0,0,1-.46.46H13.25v3.42a.47.47,0,0,1-.47.47.46.46,0,0,1-.46-.47v-3.42H8.9a.47.47,0,1,1,0-.93h3.42V189a.45.45,0,0,1,.46-.46.46.46,0,0,1,.47.46v3.42h3.42A.46.46,0,0,1,17.13,192.92Z"/><path class="cls-9" d="M50.05,189.4a4.73,4.73,0,0,1,2.41-6c2.41-1.3,5.24-.7,6.33,1.33-1.09-2,0-4.72,2.4-6s4.72-.34,6.33,1.34c2.92,3.05.54,9.4-1.23,13.07a4.29,4.29,0,0,1-4.63,2.38C57.84,194.82,51.68,193.14,50.05,189.4Z"/><ellipse class="cls-9" cx="70.23" cy="197.76" rx="2.72" ry="3.8" transform="translate(-85.01 56.54) rotate(-28.16)"/><ellipse class="cls-9" cx="62.99" cy="201.63" rx="2.72" ry="3.8" transform="translate(-87.69 53.59) rotate(-28.16)"/><ellipse class="cls-9" cx="73.88" cy="190.02" rx="2.72" ry="3.8" transform="translate(-80.92 57.35) rotate(-28.16)"/><ellipse class="cls-9" cx="54.55" cy="200.36" rx="2.72" ry="3.8" transform="translate(-88.09 49.45) rotate(-28.16)"/><path class="cls-14" d="M47,210.32l-3.27.23c-4,.31-11.75,1.09-21.29,2.28-7.17.89-14.4,1.9-21.26,4.3a72.54,72.54,0,0,0-9.78,4.37c-3,1.57-5.92,3.23-8.77,5-2.64,1.62-8.67,5.22-8.61,5.44a49,49,0,0,0,2.3,6.15c.43,1,1.5,3.8,3.07,2.8,2.67-1.7,5.37-3.38,8.12-5,.91-.54,1.84-1.07,2.76-1.6,13-7.73,29.43-11.51,44.35-12.44.81,0,1.63,0,2.45,0,3.27,0,6.52.14,9.74.39.7,0,1.4,0,2.1.08a7,7,0,0,0,.12-3.53A33.92,33.92,0,0,0,48,214C47.75,213.07,47.41,211.82,47,210.32Z"/><line class="cls-16" x1="3.65" y1="227.25" x2="8.95" y2="244.17"/><path class="cls-15" d="M52.3,222.34l-3.07,1.57c-9.49,4.34-18.89,9.21-29,13.17-1.13.44-2.27.87-3.41,1.29-12.64,5.21-41.55,5-41.55,5l-1.11-4c-.86-3.62-1.65-8.12.61-7.89,3.33.09,6.68.15,10.05.12,1.12,0,2.24,0,3.36,0,16-.07,32.78-5.59,46.71-12.88.75-.41,1.49-.85,2.23-1.29,2.94-1.78,5.79-3.68,8.55-5.67.62-.4,1.13-.77,1.75-1.18,1.91,1.61,2.37,4.05,3.84,8Z"/><path class="cls-21" d="M4.7,240a4.7,4.7,0,0,0-3.1,4.75,4.78,4.78,0,0,0,5.5,3.93"/><path class="cls-16" d="M3.65,227.25A9,9,0,0,0,9,244.17"/><path class="cls-17" d="M7.62,244.41a12,12,0,1,0,14.8,8.39A12,12,0,0,0,7.62,244.41Zm1.92,7A2.78,2.78,0,1,1,11.47,248,2.77,2.77,0,0,1,9.54,251.37Z"/><path class="cls-21" d="M4.78,240a4.69,4.69,0,0,1,5.1,2.48,4.76,4.76,0,0,1-2.7,6.19"/><text class="cls-22" transform="translate(6.17 264.72) rotate(-25.89)">Fido</text><path class="cls-10" d="M80.37,138.51a15.19,15.19,0,0,0-4.4-3.57h0c-.47-.27-1-.53-1.45-.77a30.08,30.08,0,0,1-5.28-7.34,34.63,34.63,0,0,1-3.17-7.49,16.76,16.76,0,0,0-.52-7.33c-.51-1.53-1.5-3.17-3.19-3.53a2.42,2.42,0,0,0-1.59.17l0,0A4.2,4.2,0,0,0,58.88,112a5.26,5.26,0,0,0,.18,1.67,5.25,5.25,0,0,0-1.37-1,4.19,4.19,0,0,0-3.75,0l0,0A2.41,2.41,0,0,0,53,114c-.51,1.66.44,3.32,1.52,4.51a17,17,0,0,0,6.44,4.16A36.49,36.49,0,0,1,65.24,129a31.45,31.45,0,0,1,3.31,8.11,17.07,17.07,0,0,0,.17,7.43c.44,1.59,1.36,3.32,3.08,3.78a2.41,2.41,0,0,0,1.63-.1l.06,0a4.33,4.33,0,0,0,2-3.26,5.52,5.52,0,0,0-.09-1.72,5.15,5.15,0,0,0,1.35,1.06,4.31,4.31,0,0,0,3.83.22l.06,0a2.53,2.53,0,0,0,1-1.28C82.29,141.53,81.41,139.78,80.37,138.51Z"/><path class="cls-11" d="M37.86,100.67a2.8,2.8,0,0,0-1.43-1.2l-.07,0a4.94,4.94,0,0,0-4.24,1.09A6.47,6.47,0,0,0,30.85,102a6,6,0,0,0-.28-1.93,4.92,4.92,0,0,0-3-3.19l-.07,0a2.73,2.73,0,0,0-1.84.26c-1.81.9-2.46,3-2.6,4.91-.37,4.77,1.76,9.34,3.84,13.66h0c4.06-2.54,8.3-5.28,10.53-9.51C38.31,104.55,38.91,102.4,37.86,100.67Z"/><path class="cls-23" d="M64.47,241.57A.47.47,0,0,1,64,242H60.58v3.43a.46.46,0,0,1-.46.46.47.47,0,0,1-.47-.46V242H56.23a.47.47,0,1,1,0-.93h3.42v-3.42a.46.46,0,0,1,.47-.46.45.45,0,0,1,.46.46v3.42H64A.47.47,0,0,1,64.47,241.57Z"/><path class="cls-12" d="M51,137.55a.44.44,0,0,1-.44.44H47.73l2,2a.45.45,0,0,1-.63.63l-2-2v2.84a.44.44,0,0,1-.88,0v-2.84l-2,2a.45.45,0,1,1-.63-.63l2-2H42.75a.44.44,0,0,1-.44-.44.44.44,0,0,1,.44-.44H45.6l-2-2a.44.44,0,0,1,.32-.75.43.43,0,0,1,.31.13l2,2v-2.84a.44.44,0,1,1,.88,0v2.84l2-2a.45.45,0,0,1,.32-.13.42.42,0,0,1,.31.13.44.44,0,0,1,0,.62l-2,2h2.85A.43.43,0,0,1,51,137.55Z"/><path class="cls-13" d="M210.92,17.67a12.73,12.73,0,0,1,6.28-2.25c.27,0,.55,0,.82,0l.57.05h0a10.25,10.25,0,0,1,1.75.36A11.26,11.26,0,1,1,206,25.75a10.66,10.66,0,0,1,.29-1.78l.15-.55a8.11,8.11,0,0,1,.28-.78A12,12,0,0,1,210.92,17.67Z"/><path class="cls-5" d="M210.92,17.67a12.73,12.73,0,0,1,6.28-2.25c.27,0,.55,0,.82,0l.57.05h0a10.25,10.25,0,0,1,1.75.36c.33.4.64.82.94,1.26,4.42,6.39,4.77,13.8.79,16.56s-10.81-.2-15.22-6.59q-.45-.64-.84-1.32a10.66,10.66,0,0,1,.29-1.78l.15-.55a8.11,8.11,0,0,1,.28-.78A12,12,0,0,1,210.92,17.67Z"/><path class="cls-13" d="M210.92,17.67a12.73,12.73,0,0,1,6.28-2.25c.27,0,.55,0,.82,0l.57.05h0a19,19,0,0,1,1.8,2.23c3.87,5.6,4.18,12.11.69,14.52s-9.46-.18-13.33-5.78A18.14,18.14,0,0,1,206.31,24l.15-.55a8.11,8.11,0,0,1,.28-.78A12,12,0,0,1,210.92,17.67Z"/><path class="cls-20" d="M262.79,14.22a.46.46,0,0,1-.47.46H258.9v3.43a.46.46,0,0,1-.46.47.47.47,0,0,1-.47-.47V14.68h-3.42a.46.46,0,0,1-.47-.46.47.47,0,0,1,.47-.46H258V10.33a.47.47,0,0,1,.47-.46.46.46,0,0,1,.46.46v3.43h3.42A.47.47,0,0,1,262.79,14.22Z"/><path class="cls-9" d="M295.71,10.71a4.74,4.74,0,0,1,2.4-6c2.41-1.29,5.25-.69,6.33,1.33-1.08-2,0-4.71,2.4-6s4.73-.35,6.33,1.33c2.92,3.06.55,9.4-1.23,13.08a4.27,4.27,0,0,1-4.62,2.37C303.49,16.12,297.33,14.45,295.71,10.71Z"/><ellipse class="cls-9" cx="315.88" cy="19.07" rx="2.72" ry="3.8" transform="translate(28.38 151.31) rotate(-28.16)"/><ellipse class="cls-9" cx="308.65" cy="22.94" rx="2.72" ry="3.8" transform="translate(25.7 148.36) rotate(-28.16)"/><ellipse class="cls-9" cx="319.53" cy="11.32" rx="2.72" ry="3.8" transform="translate(32.47 152.12) rotate(-28.16)"/><ellipse class="cls-9" cx="300.21" cy="21.67" rx="2.72" ry="3.8" transform="translate(25.3 144.22) rotate(-28.16)"/><path class="cls-14" d="M292.62,31.62c-.78.06-1.91.13-3.27.24-4,.3-11.76,1.09-21.3,2.28-7.17.89-14.39,1.9-21.25,4.29A71.49,71.49,0,0,0,237,42.81c-3,1.57-5.92,3.22-8.78,5-2.64,1.62-8.66,5.22-8.6,5.44a46.79,46.79,0,0,0,2.3,6.14c.43,1,1.5,3.81,3.07,2.81,2.66-1.7,5.36-3.39,8.11-5,.92-.54,1.84-1.08,2.77-1.6,13-7.74,29.43-11.52,44.34-12.45.82,0,1.64,0,2.45,0,3.27,0,6.52.14,9.74.39.7,0,1.4,0,2.1.07a6.71,6.71,0,0,0,.12-3.52,32.88,32.88,0,0,0-1-4.75C293.41,34.37,293.07,33.12,292.62,31.62Z"/><line class="cls-16" x1="249.31" y1="48.56" x2="254.6" y2="65.48"/><path class="cls-15" d="M298,43.64c-1,.53-2,1.06-3.07,1.57-9.49,4.34-18.89,9.22-29,13.18-1.13.44-2.26.87-3.41,1.29-12.63,5.21-41.54,5-41.54,5l-1.12-4c-.85-3.63-1.65-8.12.62-7.89,3.32.08,6.68.14,10,.12,1.12,0,2.24,0,3.37-.05,15.95-.08,32.78-5.59,46.7-12.88.76-.42,1.5-.85,2.23-1.3,2.95-1.77,5.79-3.68,8.55-5.66.62-.4,1.14-.77,1.75-1.18,1.91,1.6,2.37,4.05,3.84,8Z"/><path class="cls-21" d="M250.36,61.34a4.69,4.69,0,0,0-3.1,4.75,4.77,4.77,0,0,0,5.5,3.92"/><path class="cls-16" d="M249.31,48.56a9,9,0,0,0,5.29,16.92"/><path class="cls-17" d="M253.27,65.72a12,12,0,1,0,14.8,8.39A12,12,0,0,0,253.27,65.72Zm1.93,7a2.78,2.78,0,1,1,1.93-3.41A2.78,2.78,0,0,1,255.2,72.68Z"/><path class="cls-21" d="M250.44,61.32a4.7,4.7,0,0,1,5.1,2.47,4.79,4.79,0,0,1-2.7,6.2"/><text class="cls-22" transform="translate(251.82 86.03) rotate(-25.89)">Fido</text><path class="cls-23" d="M310.12,62.88a.45.45,0,0,1-.46.45h-3.42v3.43a.47.47,0,0,1-.47.47.46.46,0,0,1-.46-.47V63.33h-3.42a.46.46,0,0,1-.47-.45.47.47,0,0,1,.47-.47h3.42V59a.46.46,0,0,1,.46-.46.47.47,0,0,1,.47.46v3.43h3.42A.46.46,0,0,1,310.12,62.88Z"/><path class="cls-18" d="M187.17,64.68a.44.44,0,0,1-.44.44h-2.84l2,2a.45.45,0,0,1-.63.63l-2-2v2.84a.44.44,0,0,1-.88,0V65.75l-2,2a.45.45,0,0,1-.63-.63l2-2h-2.84a.44.44,0,0,1-.44-.44.44.44,0,0,1,.44-.44h2.85l-2-2a.44.44,0,0,1,.32-.75.43.43,0,0,1,.31.13l2,2V60.77a.44.44,0,1,1,.88,0v2.84l2-2a.45.45,0,0,1,.32-.13.42.42,0,0,1,.31.13.44.44,0,0,1,0,.62l-2,2h2.85A.43.43,0,0,1,187.17,64.68Z"/><path class="cls-19" d="M184.69,31.62a.45.45,0,0,1-.46.46h-3.42v3.43a.47.47,0,1,1-.94,0V32.08h-3.42a.46.46,0,0,1-.46-.46.47.47,0,0,1,.46-.46h3.42V27.73a.47.47,0,0,1,.94,0v3.43h3.42A.46.46,0,0,1,184.69,31.62Z"/><path class="cls-13" d="M47.15,17.67a12.73,12.73,0,0,1,6.28-2.25c.27,0,.55,0,.82,0l.57.05h0a10.25,10.25,0,0,1,1.75.36,11.26,11.26,0,1,1-14.33,9.91A10.66,10.66,0,0,1,42.54,24l.15-.55a8.11,8.11,0,0,1,.28-.78A12,12,0,0,1,47.15,17.67Z"/><path class="cls-5" d="M47.15,17.67a12.73,12.73,0,0,1,6.28-2.25c.27,0,.55,0,.82,0l.57.05h0a10.25,10.25,0,0,1,1.75.36c.33.4.64.82.94,1.26,4.42,6.39,4.77,13.8.79,16.56s-10.81-.2-15.22-6.59q-.45-.64-.84-1.32A10.66,10.66,0,0,1,42.54,24l.15-.55a8.11,8.11,0,0,1,.28-.78A12,12,0,0,1,47.15,17.67Z"/><path class="cls-13" d="M47.15,17.67a12.73,12.73,0,0,1,6.28-2.25c.27,0,.55,0,.82,0l.57.05h0a19,19,0,0,1,1.8,2.23c3.87,5.6,4.18,12.11.69,14.52S47.86,32.05,44,26.45A19.23,19.23,0,0,1,42.54,24l.15-.55a8.11,8.11,0,0,1,.28-.78A12,12,0,0,1,47.15,17.67Z"/><path class="cls-20" d="M99,14.22a.46.46,0,0,1-.47.46H95.13v3.43a.46.46,0,0,1-.46.47.47.47,0,0,1-.47-.47V14.68H90.78a.46.46,0,0,1-.47-.46.47.47,0,0,1,.47-.46H94.2V10.33a.47.47,0,0,1,.47-.46.46.46,0,0,1,.46.46v3.43h3.42A.47.47,0,0,1,99,14.22Z"/><path class="cls-9" d="M131.94,10.71a4.74,4.74,0,0,1,2.4-6c2.41-1.29,5.25-.69,6.33,1.33-1.08-2,0-4.71,2.4-6s4.73-.35,6.33,1.33c2.92,3.06.55,9.4-1.23,13.08a4.27,4.27,0,0,1-4.62,2.37C139.72,16.12,133.56,14.45,131.94,10.71Z"/><ellipse class="cls-9" cx="152.11" cy="19.07" rx="2.72" ry="3.8" transform="translate(9 74.03) rotate(-28.16)"/><ellipse class="cls-9" cx="144.88" cy="22.94" rx="2.72" ry="3.8" transform="translate(6.32 71.08) rotate(-28.16)"/><ellipse class="cls-9" cx="155.76" cy="11.32" rx="2.72" ry="3.8" transform="translate(13.09 74.84) rotate(-28.16)"/><ellipse class="cls-9" cx="136.44" cy="21.67" rx="2.72" ry="3.8" transform="translate(5.92 66.95) rotate(-28.16)"/><path class="cls-14" d="M128.85,31.62c-.78.06-1.91.13-3.27.24-4,.3-11.76,1.09-21.3,2.28C97.11,35,89.89,36,83,38.43a71.49,71.49,0,0,0-9.78,4.38c-3,1.57-5.92,3.22-8.78,5-2.64,1.62-8.66,5.22-8.6,5.44a46.79,46.79,0,0,0,2.3,6.14c.43,1,1.5,3.81,3.07,2.81,2.66-1.7,5.36-3.39,8.11-5,.92-.54,1.84-1.08,2.77-1.6,13-7.74,29.43-11.52,44.34-12.45.82,0,1.64,0,2.45,0,3.27,0,6.52.14,9.74.39.7,0,1.4,0,2.1.07a6.71,6.71,0,0,0,.12-3.52,32.88,32.88,0,0,0-1-4.75C129.64,34.37,129.3,33.12,128.85,31.62Z"/><line class="cls-16" x1="85.54" y1="48.56" x2="90.83" y2="65.48"/><path class="cls-15" d="M134.18,43.64c-1,.53-2,1.06-3.07,1.57-9.49,4.34-18.89,9.22-29,13.18-1.13.44-2.26.87-3.41,1.29-12.63,5.21-41.54,5-41.54,5l-1.12-4c-.85-3.63-1.65-8.12.62-7.89,3.32.08,6.68.14,10,.12,1.12,0,2.24,0,3.37-.05C86,52.75,102.82,47.24,116.75,40c.75-.42,1.49-.85,2.22-1.3,3-1.77,5.79-3.68,8.55-5.66.62-.4,1.14-.77,1.75-1.18,1.91,1.6,2.37,4.05,3.84,8Z"/><path class="cls-21" d="M86.59,61.34a4.69,4.69,0,0,0-3.1,4.75A4.77,4.77,0,0,0,89,70"/><path class="cls-16" d="M85.54,48.56a9,9,0,0,0,5.29,16.92"/><path class="cls-17" d="M89.5,65.72a12,12,0,1,0,14.8,8.39A12,12,0,0,0,89.5,65.72Zm1.93,7a2.78,2.78,0,1,1,1.93-3.41A2.78,2.78,0,0,1,91.43,72.68Z"/><path class="cls-21" d="M86.67,61.32a4.7,4.7,0,0,1,5.1,2.47,4.79,4.79,0,0,1-2.7,6.2"/><text class="cls-22" transform="translate(88.05 86.03) rotate(-25.89)">Fido</text><path class="cls-23" d="M146.35,62.88a.45.45,0,0,1-.46.45h-3.42v3.43a.47.47,0,0,1-.47.47.46.46,0,0,1-.46-.47V63.33h-3.42a.46.46,0,0,1-.47-.45.47.47,0,0,1,.47-.47h3.42V59a.46.46,0,0,1,.46-.46.47.47,0,0,1,.47.46v3.43h3.42A.46.46,0,0,1,146.35,62.88Z"/><path class="cls-18" d="M23.4,64.68a.44.44,0,0,1-.44.44H20.12l2,2a.45.45,0,0,1-.63.63l-2-2v2.84a.44.44,0,0,1-.88,0V65.75l-2,2a.45.45,0,0,1-.63-.63l2-2H15.14a.44.44,0,0,1-.44-.44.44.44,0,0,1,.44-.44H18l-2-2a.44.44,0,0,1,.32-.75.43.43,0,0,1,.31.13l2,2V60.77a.44.44,0,1,1,.88,0v2.84l2-2a.45.45,0,0,1,.32-.13.42.42,0,0,1,.31.13.44.44,0,0,1,0,.62l-2,2H23A.43.43,0,0,1,23.4,64.68Z"/><path class="cls-19" d="M20.92,31.62a.45.45,0,0,1-.46.46H17v3.43a.47.47,0,0,1-.94,0V32.08H12.69a.46.46,0,0,1-.47-.46.47.47,0,0,1,.47-.46H16.1V27.73a.47.47,0,0,1,.94,0v3.43h3.42A.46.46,0,0,1,20.92,31.62Z"/></g></svg>