<svg xmlns="http://www.w3.org/2000/svg" viewBox="0 0 97.227 97.227"><defs><style>.cls-1{fill:#091235;}.cls-2{fill:#e5e4da;}.cls-3{fill:#cb526c;}.cls-4{fill:#38312f;}.cls-5{fill:#82c4f6;}</style></defs><title>logo-dog-age-calculator</title><g id="circle"><circle class="cls-1" cx="48.614" cy="48.614" r="48.614"/></g><g id="eyes"><ellipse class="cls-2" cx="48.496" cy="76.268" rx="3.334" ry="4.086"/><path class="cls-2" d="M71.166,66.708c-7.43,9.38-18.46,9.56-19.83,9.56-.95-.17-1.89-.35-2.84-.53-.95.18-1.89.36-2.84.53-1.37,0-12.4-.18-19.83-9.56-7.27-9.17-5.19-19.67-4.89-21.06.575-2.538,2.486-10.51,5.9-16.935a25.851,25.851,0,0,1,4.074-5.839,19.855,19.855,0,0,1,4.464-3.694c3.411-1.994,6.673-2.159,9.795-2.281a35.5,35.5,0,0,1,12.9,1.929A16.613,16.613,0,0,1,65.4,22.466a15.542,15.542,0,0,1,1.533,1.542q4.56,10.815,9.12,21.64C76.356,47.038,78.436,57.538,71.166,66.708Z"/><path class="cls-3" d="M65.815,70.855l.034-.012a10.329,10.329,0,0,1-17.308,5.918,10.315,10.315,0,0,1-17.074-4.87,6.738,6.738,0,0,1,.658-6L42.7,49.189a6.866,6.866,0,0,1,11.591,0L64.868,65.9A6.734,6.734,0,0,1,65.815,70.855Z"/><path class="cls-4" d="M54.932,59.738c0,1.683-3.1,1.478-4.878,4.586-.951,1.663-.966,3.179-1.55,3.2s-.72-1.521-1.784-3.24c-1.906-3.079-4.636-2.921-4.659-4.543-.037-2.567,3.431-4.725,6.435-4.725C52.05,55.013,54.932,57.129,54.932,59.738Z"/><path class="cls-3" d="M10.21,34.562a15.222,15.222,0,0,0,.043,3.985A17,17,0,0,0,11.41,42.6a24.605,24.605,0,0,0,2.326,4.53c1.917,2.923,2.9,4.444,4.155,4.524,1.184.075,2.727-1.043,6.121-8.222,4.631-9.8,4.963-14.453,9.452-20.692a36.6,36.6,0,0,1,3.889-4.562,21.9,21.9,0,0,0-2.782.468c-3.245.764-4.7,1.892-9.55,4.367-3.414,1.744-5.157,2.524-5.961,2.89-3.542,1.612-4.886,2.019-5.907,2.862a6.138,6.138,0,0,0-1.034,1.116A9.6,9.6,0,0,0,10.21,34.562Z"/><path class="cls-3" d="M87.48,40.539a82.134,82.134,0,0,1-3.329,7.8c-.686,1.5-1.447,3.071-2.9,3.4a2.782,2.782,0,0,1-1.368-.055c-2.377-.648-3.878-3.712-5.7-8.084-.777-1.863-1.408-3.473-1.856-4.645-.354-.925-.569-1.512-.666-1.77a47.671,47.671,0,0,0-5.358-9.909,26.183,26.183,0,0,0-4.762-5.715,18.94,18.94,0,0,0-5.21-3.161c-.484-.19-.9-.327-1.2-.42a49.711,49.711,0,0,1,6.405,1.32,53.2,53.2,0,0,1,5.595,1.9c12.281,4.8,10.565,5.519,16.571,7.8,1.046.4,3.53,1.3,4.487,3.557a5.816,5.816,0,0,1,.361,1.427C88.87,36.069,88.414,37.829,87.48,40.539Z"/><circle class="cls-4" cx="34.96" cy="41.248" r="5.149"/><circle class="cls-4" cx="62.032" cy="41.248" r="5.149"/><path class="cls-5" d="M39.313,41.248a.463.463,0,0,1-.467.459h-3.42v3.427a.466.466,0,1,1-.932,0V41.707h-3.42a.463.463,0,1,1,0-.925h3.42V37.354a.466.466,0,0,1,.932,0v3.428h3.42A.465.465,0,0,1,39.313,41.248Z"/><path class="cls-5" d="M66.382,41.253a.437.437,0,0,1-.44.44H63.1l2.01,2.01a.445.445,0,0,1-.63.63l-2.01-2.01v2.84a.44.44,0,0,1-.88,0v-2.84l-2.01,2.01a.445.445,0,1,1-.63-.63l2.01-2.01h-2.84a.444.444,0,0,1-.44-.44.437.437,0,0,1,.44-.44h2.85l-2.02-2.02a.44.44,0,0,1,.32-.75.432.432,0,0,1,.31.13l2.01,2.01v-2.84a.44.44,0,1,1,.88,0v2.84l2.01-2.01a.454.454,0,0,1,.32-.13.416.416,0,0,1,.31.13.441.441,0,0,1,0,.62l-2.02,2.02h2.85A.431.431,0,0,1,66.382,41.253Z"/></g></svg>