<svg xmlns="http://www.w3.org/2000/svg" viewBox="0 0 358.928 522.088"><defs><style>.cls-1{fill:#dc996d;}.cls-2,.cls-8{fill:none;stroke-linecap:round;}.cls-2{stroke:#bc691e;}.cls-11,.cls-2,.cls-8{stroke-miterlimit:10;}.cls-3{fill:#d1af99;}.cls-4{fill:#191616;}.cls-5{fill:#e3c6b2;}.cls-6{fill:#2b2523;}.cls-7{fill:#d37876;}.cls-8{stroke:#bc5b5b;}.cls-11,.cls-9{fill:#0b0b06;}.cls-10{fill:#2d2626;}.cls-11{stroke:#12b2a6;stroke-width:0.5px;}.cls-12{fill:#e5e1e1;}.cls-13{fill:#e2aa81;}</style></defs><title>shiba-inu-illustration</title><g id="leggies"><path class="cls-1" d="M207.24,469.81c-6.15,1.76-15.81-.44-19.32-3.07s-3.51-7.03-5.03-10.1a116.081,116.081,0,0,0-9.02-14.05c-2.2-2.63-9.22-11.42-12.3-19.32s-2.19-19.32-1.75-22.83,2.63-14.05,3.51-19.76-2.19-15.8-5.27-22.39-6.14-7.46-13.17-11.42-17.56-15.36-23.27-22.39a86.045,86.045,0,0,1-7.9-10.97s-.1.23-.27.64c-.45,1.07-1.41,3.39-2.37,5.94-1.31,3.51-14.93,15.81-26.78,26.78s-26.34,25.91-37.76,36.89a59.382,59.382,0,0,0-9.41,12.26c-6.2,10.36-10.18,22.08-10.79,27.25-.87,7.47,1.32,10.1,3.08,14.93s4.83,6.59,6.58,11.85-6.58,7.91-11.9,10.98-16.2-2.19-17.95-3.07S0,452.25,0,448.74a31.826,31.826,0,0,1,1.76-10.98c1.31-3.51,3.95-10.1,5.26-13.17s4.83-15.37,4.83-19.76-.43-10.98,0-14.05,5.71-10.98,9.66-18a23.875,23.875,0,0,0,2.58-11.02,16.684,16.684,0,0,1,4.95-11.44c18.02-18,75.89-75.43,82.92-77.65,8.34-2.63,27.66,3.08,37.32,5.27,6.83,1.56,19.37,11.45,28.45,19.12,3.77,3.19,6.94,5.99,8.87,7.66,6.59,5.71,23.71,41.72,22.39,44.35s-8.78,21.51-11.85,33.37a53.635,53.635,0,0,0-1.31,7.54c-1.2,11.2.06,24.72,2.19,31.1,2.63,7.9,5.7,14.49,9.66,17.56s6.14,11.85,9.22,18S213.38,468.06,207.24,469.81Z"/><path class="cls-1" d="M254.312,377.378s-.8,60.38,0,72.694,3.972,39.326,7.547,46.079,5.561,7.548,6.356,9.931,2.78,3.575,0,6.753-2.007,6.386-6.412,6.386-18.512,5.642-24.782,1.1-12.069-5.329-11.442-7.837,4.7-5.486,3.762-18.966-12.155-64.692-13.76-80.1,0-61.964,0-61.964l111.406,10.916s-2.569,28.574-7.063,39.811-14.448,45.911-15.09,52.332-2.89,27.289-1.284,32.105,7.7,12.521,8.026,13.806,1.284,6.421,0,8.668-6.1,7.063-10.916,8.669-16.7,3.531-19.263.642-5.779-6.742-6.421-9.632-.642-7.384-2.569-8.347-4.494-2.89-3.21-6.1,6.742-14.769,6.742-29.537,5.137-49.443,4.5-58.111c0,0,1.973-11.794.321-35.454-.22-3.145-.654-8.2-4.174-10.457-5.233-3.352-13.4,1.977-13.805,2.247C255.911,367.6,254.575,375.522,254.312,377.378Z"/><path class="cls-2" d="M286.069,510.808a4.754,4.754,0,0,1,1.156,1.14c2.04,2.893-.459,6.925-.711,7.318"/><path class="cls-2" d="M293.848,510.247a4.754,4.754,0,0,1,1.156,1.14c2.04,2.893-.459,6.924-.71,7.318"/><path class="cls-2" d="M301,508.338a4.754,4.754,0,0,1,1.156,1.14c2.04,2.894-.459,6.925-.71,7.318"/><path class="cls-2" d="M307.784,503.8a4.773,4.773,0,0,1,1.156,1.141c2.039,2.893-.459,6.924-.711,7.318"/><path class="cls-2" d="M260.11,510.247a4.729,4.729,0,0,0-1.155,1.14c-2.04,2.893.458,6.924.71,7.318"/><path class="cls-2" d="M249.689,512.567a4.754,4.754,0,0,0-1.156,1.14c-2.04,2.894.459,6.925.711,7.318"/><path class="cls-2" d="M239.713,512.262a4.729,4.729,0,0,0-1.155,1.14c-2.04,2.893.458,6.924.71,7.318"/><path class="cls-2" d="M232.2,508.033a4.754,4.754,0,0,0-1.156,1.14c-2.04,2.893.459,6.924.711,7.318"/><path class="cls-2" d="M15.222,452.131a4.729,4.729,0,0,1,1.155,1.14c2.04,2.893-.458,6.924-.71,7.318"/><path class="cls-2" d="M30.565,448.252a4.754,4.754,0,0,1,1.156,1.14c2.039,2.893-.459,6.925-.711,7.318"/><path class="cls-2" d="M7.374,449.579a4.754,4.754,0,0,1,1.156,1.14c2.04,2.894-.459,6.925-.71,7.318"/><path class="cls-2" d="M23.791,451.756a4.754,4.754,0,0,1,1.156,1.14c2.04,2.893-.459,6.924-.711,7.318"/><path class="cls-2" d="M212.657,457.77a4.754,4.754,0,0,1,1.156,1.14c2.04,2.893-.459,6.925-.711,7.318"/><path class="cls-2" d="M206.416,460.679a4.785,4.785,0,0,1,1.155,1.141c2.04,2.893-.459,6.924-.71,7.318"/><path class="cls-2" d="M198.571,461.084a4.749,4.749,0,0,1,1.155,1.141c2.04,2.893-.458,6.924-.71,7.318"/><path class="cls-2" d="M191.136,459.444a4.729,4.729,0,0,1,1.155,1.14c2.04,2.893-.458,6.924-.71,7.318"/><path class="cls-3" d="M275.921,463.673c7.114-12.689,15.691-28.438,25.143-46.837,0,0,13.983-27.215,10.134-43.115-.294-1.216-1.2-4.967-3.685-5.711-2.876-.863-4.7,3.258-10.552,5.036-5.313,1.616-7.436-.682-10.4,1.006-3.471,1.98-3.854,7.024-4.363,15.17-1.286,20.608-1.76,30.566-2.7,39.958-.557,5.592-.836,8.388-1.29,11.608-.917,6.511-1.759,10.131-2.132,16.409C275.919,459.988,275.908,462.261,275.921,463.673Z"/><path class="cls-3" d="M255.381,465.038s-11.57-17.39-13.523-24.987-5.26-30.008-3.486-38.927-.9-14.119,4.287-16.108a18.7,18.7,0,0,1,7.118-1.538c1.644.032,2.17-.041,2.644.308,1.148.846,1.1,2.63,1.069,3.119.558,9.289.617,16.806.557,22.1-.1,8.516-.268,15.975-.151,21.378s.319,6.268-.137,10.877c-.233,2.342-.941,8.791.148,14.681.5,2.726,1.192,6.188,1.192,6.188Z"/><path class="cls-3" d="M113.56,313.26c-.03.3-.07.59-.11.89-.45,1.07-1.41,3.39-2.37,5.94-1.31,3.51-14.93,15.81-26.78,26.78s-26.34,25.91-37.76,36.89a59.382,59.382,0,0,0-9.41,12.26,3.12,3.12,0,0,1-1.76.1,2.826,2.826,0,0,1-1.43-1.42c-1.96-3.5-1.7-7.81-1.03-11.76,1.47-8.62,4.39-15.09,8.52-22.73,2.66-4.92,5.51-10.05,10.17-13.14a3.846,3.846,0,0,0,1.16-.96,4.7,4.7,0,0,0,.54-1.62c.59-2.48,2.29-4.53,3.86-6.55,9-11.52,15.42-24.96,25.09-35.92a155.411,155.411,0,0,1,13.29-12.88q3.435-3.09,6.88-6.16s1.323-.943,2.52-1.66c7.875-4.718,22.356-2.353,23.268-2.2,6.32,1.087,14.03,2.412,14.2,4.948.331,5.036-29.34,10.7-29.124,18.328C113.288,302.689,113.612,312.741,113.56,313.26Z"/><path class="cls-3" d="M208.99,349.07c-1.31,2.63-8.78,21.51-11.85,33.37a53.635,53.635,0,0,0-1.31,7.54,34.821,34.821,0,0,1-10.083-15.814c-3.956-14,5.3-20.341,1.625-32.805-3.711-12.6-15.13-12.781-16.339-25.462-.191-2-.9-9.468,3.727-15.7a18.388,18.388,0,0,1,2.97-3.14c3.77,3.19,6.94,5.99,8.87,7.66C193.19,310.43,210.31,346.44,208.99,349.07Z"/></g><g id="black_hair" data-name="black hair"><path class="cls-4" d="M184.053,94.76a17.875,17.875,0,0,1,2.911-5.69,28.538,28.538,0,0,1,2.081-2.376c1.994-2.028,2.512-1.834,4.017-5.908,1.928-5.218,1.021-18.6.907-21.89s-.68-7.713-.68-15.312-.227-14.858.34-22,.34-10.548,1.475-14.291.6-4.034,1.56-5.075,1.9-1.146,4.292-1.146,10,2.812,14.684,6.978a135.493,135.493,0,0,1,11.872,12.08,122.949,122.949,0,0,1,8.435,13.746c.729,1.771,1.771,6.31,2.4,6.54s2.5-2.687,4.686-3.52,13.122-1.77,18.537-.833a118.132,118.132,0,0,0,15.308,1.25,12.892,12.892,0,0,1,4.791.937c2.395.729,3.6-.937,6.746-7.706A86.778,86.778,0,0,1,302.493,6.8a30.774,30.774,0,0,1,2.637-2.727,18.463,18.463,0,0,1,3.247-2.452,9.9,9.9,0,0,1,3.615-1.5,13.187,13.187,0,0,1,3.569.028,9.8,9.8,0,0,1,2,.334c2.184.774,3.2,3.189,4.154,5.106a44.4,44.4,0,0,1,3.067,7.984c1.458,5.311,3.165,14.267,4.134,17.391s2.531,10.31,3.781,14.788,1.666,3.541,1.978,6.874-.729,7.081,0,11.871,6.144,20.933,9.685,26.66,5.311,12.185,7.186,16.35,2.916,12.6,2.812,16.767-1.331,22.39-2.083,25.649c-1.739,7.537-1.613,16.038-1.461,23.713a198.113,198.113,0,0,0,2.3,28.642c1.5,9.019,2.511,18.074,3.928,27.106,2,12.784,2.256,15.221,1.5,31.424s-.752,28.234-4.262,39.264S353.024,310.09,343,327.637s-12.282,20.555-13.285,27.573-2,12.283-2.256,17.3a75.3,75.3,0,0,1-5.264,24.315c-.891,2.306-4.089,13.491-10.528,35.845-2.558,8.88-5.315,18.743-7.069,18.483-.753-.112-1.361-2.092-1.791-3.492a12.993,12.993,0,0,1-.665-4.212c.752-5.515,2-26.07,4.261-46.875s4.011-22.811.5-23.813-8.522,5.264-11.53,6.266-5.014,5.014-8.523,5.264-6.267-1.253-6.267-5.765c0-3.254.522-5.335.437-8.312a21.463,21.463,0,0,0-.437-3.971c-.435-2.092-1.017-4.717-3.161-6.8a6.306,6.306,0,0,0-2.6-1.72c-1.865-.582-3.541.043-5.779.914-2.19.853-3.558,1.385-4.837,2.58-2.915,2.723-1.65,5.41-4.925,12.548-.841,1.833-1.857,3.729-1.971,3.9-1.455,2.216-2.616,2.865-2.792,4.622-.25,2.507-6.266,6.517-7.77,6.016s-3.259-.251-4.512,5.264a143.012,143.012,0,0,0-3.76,28.827c-.247,8.825-.37,13.237-.235,15.093.322,4.441.966,8.412.235,14.235-.476,3.785-.974,7.743-2.513,8.019-2.423.435-7.241-8.282-8.767-16.793-.573-3.193-.6-5.874-2.1-10.543a46.818,46.818,0,0,0-2.916-7c-5.225-10.527-7.486-22.433-8.522-26.32a55.814,55.814,0,0,1-2.006-16.544c.251-7.019-.5-20.054-4.01-27.574s-12.283-17.3-14.038-19.3-15.792-25.317-24.816-32.336-24.063-19.8-30.079-20.554-14.288,0-23.062,1-18.8,2.256-21.808,10.027-4.261,16.795-6.768,21.808-13.034,23.563-23.312,29.328-10.528,10.277-15.04,15.541-8.271,14.037-11.53,14.037-11.531,0-12.283-3.76-.752-16.042,0-26.319-.752-35.344,3.008-54.4,3.76-15.04,1.755-26.32-2.256-15.541-.752-26.069,5.264-16.795,13.285-29.077,8.272-16.795,14.789-21.558,17.8-24.064,38.352-29.829,29.579-8.773,44.368-9.776,24.565-.752,31.333-.752a75.97,75.97,0,0,1,13.787,1.5s-6.768-15.792-5.013-28.576c1.33-9.689,2.155-17.792,3.076-21.056C183.332,96.963,183.748,95.669,184.053,94.76Z"/></g><g id="chest"><path class="cls-5" d="M337.09,318.67c-.66,1.54-1.32,3.06-2.01,4.57a43.812,43.812,0,0,1-8.85,13.42c-1.68,1.69-5.23,4.86-8.33,3.89-.6-.18-1.24-.83-2.53-2.03-2-1.84-2.19-2.43-3.54-3.73a15.025,15.025,0,0,0-6.24-3.9,14.227,14.227,0,0,0-4.14-.53,17.609,17.609,0,0,0-5.25.82,19.1,19.1,0,0,0-7.78,5.02c-2.24,2.34-2.96,4.75-5.32,8.53-.96,1.53-2.08,5.23-3.44,7.21a3.5,3.5,0,0,1-1.14,1.16h-.01a1.3,1.3,0,0,1-.62.16,1.684,1.684,0,0,1-1.07-.54c-3.35-3.16-5.58-10.55-8.45-13.83-2.66-3.04-7.71-4.53-12.39-4.34a14.3,14.3,0,0,0-7.36,2.11c-.35.24-2.8,2.26-3.31,2.67,0,0-1.68,1.36-4.66,3.44a6.224,6.224,0,0,1-2.84,1.33,5.147,5.147,0,0,1-2.38-.27c-1.17-.39-1.97-1.03-4.04-3.13-1.44-1.47-2.19-2.19-2.79-2.95a96.41,96.41,0,0,1-6.5-9.98c-.58-.95-1.17-1.91-1.76-2.86-.32-.5-.62-.99-.94-1.49-.01-.02-.03-.05-.04-.07-.17-.25-.33-.51-.5-.76-.1-.17-.5-.6-.5-.79-.08-.12-.15-.23-.22-.34-2.86-4.37-2.4-3.39-4.24-6.21-4.16-6.35-8.06-13.71-6.13-20.95a9.356,9.356,0,0,1,1.48-2.94c2.79-4.03,12.1-5.9,28.23-4.34s35.69,5.58,42.2,7.75c4.26,1.42,7.65,2.18,10.94,1.41a13.415,13.415,0,0,0,5.27-2.65s7.61-5.69,21.38-12.18c7.57-3.57,16.53-7.79,22.92-3.95,6.68,4,6.82,14.58,6.85,16.51C347.12,300.08,344.95,300.43,337.09,318.67Z"/><path class="cls-1" d="M277.66,350.571a5.049,5.049,0,0,1,.573,1.273c.112.494.158,1.257-.149,1.4a.417.417,0,0,1-.194.015,1.684,1.684,0,0,1-1.07-.54c-3.35-3.16-5.58-10.55-8.45-13.83-2.66-3.04-7.71-4.53-12.39-4.34a14.3,14.3,0,0,0-7.36,2.11c-.35.24-2.8,2.26-3.31,2.67,0,0-1.68,1.36-4.66,3.44a6.224,6.224,0,0,1-2.84,1.33,5.147,5.147,0,0,1-2.38-.27c-1.17-.39-1.97-1.03-4.04-3.13-1.44-1.47-2.19-2.19-2.79-2.95a96.41,96.41,0,0,1-6.5-9.98c-.58-.95-1.17-1.91-1.76-2.86-.32-.5-.62-.99-.94-1.49a2.986,2.986,0,0,1,0-2.457c1.064-1.806,5.017-1.271,8.7-.734,8.594,1.252,14.648,2.219,16.689,2.613a73.51,73.51,0,0,1,9.749,2.291,31.141,31.141,0,0,1,7.471,3.2A35.827,35.827,0,0,1,273.5,341.043c.374.766.371.858,2.253,5.047.674,1.5.939,2.08,1.281,2.952A15.793,15.793,0,0,0,277.66,350.571Z"/><path class="cls-1" d="M335.08,323.24a43.812,43.812,0,0,1-8.85,13.42c-1.68,1.69-5.23,4.86-8.33,3.89-.6-.18-1.24-.83-2.53-2.03-2-1.84-2.19-2.43-3.54-3.73a15.025,15.025,0,0,0-6.24-3.9,14.227,14.227,0,0,0-4.14-.53,17.609,17.609,0,0,0-5.25.82,19.1,19.1,0,0,0-7.78,5.02c-2.24,2.34-2.96,4.75-5.32,8.53-.96,1.53-2.08,5.23-3.44,7.21a37.294,37.294,0,0,1,4.378-17.659,28.776,28.776,0,0,1,9.3-10.825,34.185,34.185,0,0,1,9.961-4.715c2.646-.853,6.143-1.36,13.137-2.374,5.348-.775,6.929-.834,8.919-.229a18.912,18.912,0,0,1,6.174,3.507A22.531,22.531,0,0,1,335.08,323.24Z"/></g><g id="tawny_muzzle" data-name="tawny muzzle"><path class="cls-5" d="M229.164,198.92s-14.248-4.312-19.8-15.569-13.849-37.107-15.312-42.96-6.308-22.85-5.049-27.633,3.5-11.329,7.666-13.595,6.432-2.518,7.943-1.51,0,2.265-.756,7.3c-.569,3.794-2.139,5.73-1.585,7.1a2.618,2.618,0,0,0,1.334,1.208,21.437,21.437,0,0,0,10.311,2.26c7.627-.429,12.566-1.192,19.374-1.482a23.307,23.307,0,0,1,8.33.984,22.046,22.046,0,0,1,4.265,1.862c1.863.968,4.2,2.264,6.813,3.928,7.686,4.894,10.676,8.355,14.873,7.725a7.142,7.142,0,0,0,3.505-1.682c5.79-4.784,6.8-8.309,11.833-9.316s8.811-.5,14.1,0,7.805,1.763,7.805-.251.5-6.546-1.511-10.322-3.776-6.546-2.266-7.05,4.028-1.762,12.84,1.763,9.567,8.308,11.329,14.6,1.259,15.86,0,20.9-6.042,18.378-8.56,30.462-4.28,16.365-6.545,19.889-17.372,17.12-35,18.127c-7.707.44-18.445,3.845-31.47,0A54.3,54.3,0,0,1,229.164,198.92Z"/></g><g id="mouth"><path class="cls-6" d="M230.715,171.56S218.91,148.672,216.658,146.6l-2.253-2.072s3.334,4.505,7.119,4.505,6.577-.27,7.208-1.351,1.082-6.308.991-6.668.154,5.625,3.511,6.073,8.838-.336,14.432,1.231,12.681,1.838,15.9-.094,11.7-9.986,15.139-11.7,4.187-2.04,5.691-1.61,2.04.214,2.254.644.215,4.832-2.577,8.375-13.528,13.636-16.32,16.642-10.7,10.838-12.023,12.973-6.7,4.542-9.217,4.657-10.3,1.373-11.219,0a50.238,50.238,0,0,1-2.519-4.694A7.2,7.2,0,0,0,230.715,171.56Z"/></g><g id="tongue"><path class="cls-7" d="M226.9,150.523s-4.236.8-5.839,2.633-2.98,3.317-3.418,5.422-.527,7.281,0,8.685a10.267,10.267,0,0,0,3.158,4.561,9.336,9.336,0,0,0,4.649,1.755,6.388,6.388,0,0,1,1.45.007l.386,0c.535,0,.924,0,.971,0a23.941,23.941,0,0,1,2.922.847,8.881,8.881,0,0,0,3.218-.153c5.36-1.1,11.229-5.877,11.229-5.877,2.508-2.062,3.781-3.132,4.7-5.058a11.583,11.583,0,0,0,1.174-6.7,13.316,13.316,0,0,0-1.539-5.124,13.45,13.45,0,0,0-3.9-2.507,14.93,14.93,0,0,0-10.789,0,22.41,22.41,0,0,0-8.375,1.506Z"/><path class="cls-8" d="M234.853,149.867a44.084,44.084,0,0,0-2.8,5.852A45.317,45.317,0,0,0,229,172.313"/></g><g id="nose"><path class="cls-9" d="M227.281,138.641s-6.121-2.354-8-5.65c-2.642-4.624-5.1-8.659-4.709-11.458a5.144,5.144,0,0,1,.8-2.228,6.075,6.075,0,0,1,3.121-2.167,26.029,26.029,0,0,1,6.848-1.327,31.5,31.5,0,0,1,5.081-.086c5.494.314,12.557,1.256,14.283,3.61s1.727,5.808-1.726,8.947-5.651,6.121-8,7.691-3.61,2.668-5.651,2.668Z"/></g><g id="eye_rings" data-name="eye rings"><path class="cls-5" d="M211.484,86.192a10.775,10.775,0,0,0,1.034-3.035,6.571,6.571,0,0,1,.53-2.235,3.809,3.809,0,0,1,1.357-1.559c2.246-1.654,2.039-3.1,7-2.688s13.014,2.481,13.021,3.722-.4,4.136.425,6.617a15.17,15.17,0,0,1,0,8.065c-.625,1.654-3.133,4.342-4.671,6s-4.433,4.756-4.433,4.756l-2.027,2.666a11.462,11.462,0,0,0-2.936-2.459,4.029,4.029,0,0,0-1.763-.753c-2-.155-3.092,2.181-5.888-1.109-2.41-2.836-4.529-2.905-5.223-4.184-.562-1.037.01-2.69.053-2.9.119-.579.441-1.793.441-1.793h0s.373-1.493.763-3.1a14.294,14.294,0,0,1,.54-2.02c.317-.781.547-1,.966-1.859A12.772,12.772,0,0,0,211.484,86.192Z"/><path class="cls-5" d="M259.226,82.184s-2.633,4.534-3.071,7.313a11.782,11.782,0,0,0,0,5.558c.438,2.047-.835,3.363,1.41,3.51s3.562-.732,4.878,1.316.439,3.071,1.463,6.143,2.925,5.85,6,6,6.582,1.755,8.483,1.462,5.85-2.486,7.02-4.241,1.9-3.364,4.1-3.8a6.965,6.965,0,0,0,5.119-5.266c.439-2.632,1.024-6.435,0-9.506s-.146-7.02-2.779-8.483-.731-2.34-7.02-4.533-11.408-5.412-14.625-4.388S259.226,82.184,259.226,82.184Z"/></g><g id="eyes"><path class="cls-10" d="M232.939,91.584c-2.295,1.873-6.659,6.506-11.667,6.506-4.743,0-8.9-4.452-11.279-6.506,2.378-2.055,6.536-6.506,11.279-6.506C226.28,85.078,230.644,89.711,232.939,91.584Z"/><ellipse class="cls-11" cx="220.673" cy="91.857" rx="5.928" ry="5.232"/><rect class="cls-12" x="217.652" y="88.462" width="8.206" height="3.139" rx="1.569"/><path class="cls-10" d="M288.087,91.982c-2.3,1.873-6.659,6.5-11.667,6.5-4.743,0-8.9-4.451-11.279-6.5,2.379-2.055,6.536-6.506,11.279-6.506C281.428,85.476,285.792,90.109,288.087,91.982Z"/><ellipse class="cls-11" cx="276.116" cy="91.857" rx="5.928" ry="5.232"/><rect class="cls-12" x="270.901" y="88.394" width="8.206" height="3.139" rx="1.569"/></g><g id="eyebrow_tufties" data-name="eyebrow tufties"><path class="cls-13" d="M224.513,78.169c-.525-2.361-2.007-2.121,0-3.979s2.656-3.345,6.094-3.81,3.809.558,5.11.929,2.973,0,2.973,1.766.93,3.5.372,5.094-1.579,5.126-2.787,5.777a3.328,3.328,0,0,0-2.044,2.137c-.465,1.208-.33,2.044-1.606,2.044s-4.527,1.58-5.549.65-2.6-.65-2.23-2.415,1.765-1.952.65-2.788-2.614-1.394-2-2.6A16.39,16.39,0,0,0,224.513,78.169Z"/><path class="cls-13" d="M257.312,83.186c-.884-2.358-1.916-3.684-1.474-5.748s-.695-1.916.684-4.126.642-2.417,4.032-3.051,2.653-.563,4.688-.493,2.807-.07,3.859.842,1.684,2.175,2.6,2.6a2.036,2.036,0,0,1,1.193,2.105c-.211.562-.842.772-.983,1.825s.351,2.315-.351,3.3-.772,1.824-2.315,2.245-3.269,4.279-4.906,3.922-2.817-1.388-3.968-1.838-1.151-.3-1.852-.6-1-.125-1.1-.55Z"/></g><g id="inner_ear" data-name="inner ear"><path class="cls-3" d="M208.375,68.841s-4.358,2.347-5.364,0-1.341-4.693-3.017-3.688-2.8,2.09-3.259-.239,1.354-47.723,3.466-50.589,1.809-2.865,3.77-3.318,7.842,1.358,11.914,5.429A70.48,70.48,0,0,1,226.291,30.01a98.818,98.818,0,0,1,5.731,10.4c.6,1.512,1.207,4.377-.6,4.679s-3.167.452-4.826,3.77-2.564,5.58-4.977,7.239-4.392,3.524-6.871,4.024-3.083,1.1-4.289,3.366A32.108,32.108,0,0,0,208.375,68.841Z"/><path class="cls-3" d="M306.408,65.163s-4.284-3.332-6.188-6.189-1.27-1.111-2.7-6.03-1.27-6.982-3.491-8.251-5.395-1.111-5.395-2.857-1.27.159,2.221-5.871,2.314-6.823,6.552-13.647S304.187,12,308,11.052s3.967-.635,6.347,2.062,4.444,7.776,6.665,12.536a95.082,95.082,0,0,1,5.078,13.965,84.152,84.152,0,0,1,2.539,13.647c.159,3.015-.635,6.03,0,8.569s.159,5.871-.793,5.553-1.587-1.269-3.968-2.062-2.856-1.27-4.443.634-3.808,3.174-4.6.635.635-5.395-.952-6.189-2.539-1.428-3.808.952.857,4.126-1.4,3.968Z"/></g><g id="tail"><path class="cls-4" d="M16.879,164.225C35.014,158.715,45.8,150.6,51.314,145.67c11-9.826,10.731-15.684,10.546-17.7a10.6,10.6,0,0,0-1.692-4.5C55.28,114.566,55,103.735,55.1,99.093c.007-.328.018-1.12.062-1.792.766-11.755,13.94-30.721,33.93-33.952C109.828,60,126.671,75.4,133.725,87.788c7.033,12.356,6.278,25.057,5.637,34.527-.618,9.128-1.323,19.544-8.029,29.59-7.089,10.621-16.672,14.9-33.779,22.468-14.9,6.59-22.326,9.937-33.109,9.492a68.147,68.147,0,0,1-30.579-9.471c-.354-.227-1.15-.748-2.322-1.5,0,0-5.489-3.494-11.162-6.718-.79-.449-2.269-1.276-2.645-1.484l-.56-.308Z"/><path class="cls-4" d="M127.7,151.012l4.065-16.407s4.711,10.386,15.376,14.9-11.011,5.28-11.011,5.28Z"/><polygon class="cls-3" points="63.387 128.141 61.887 125.761 59.503 126.913 59.041 124.307 56.426 124.73 56.781 122.107 54.17 121.67 55.346 119.296 52.989 118.088 54.228 113.652 51.637 109.836 53.252 105.519 51.207 101.384 53.548 97.415 52.392 92.95 55.572 89.612 55.512 85.001 59.141 82.364 59.155 77.874 62.795 75.273 63.333 70.812 67.53 69.293 69.739 65.415 74.218 65.618 77.455 62.521 81.823 63.329 84.945 60.157 89.317 60.792 92.879 58.133 96.661 60.457 100.995 59.583 104.015 62.842 108.452 62.55 112.414 66.697 118.068 67.666 121.389 72.342 126.845 74.108 129.446 79.218 134.558 81.83 136.143 87.326 140.325 91.278 139.711 96.73 142.719 101.298 141.629 106.656 144.323 111.422 142.857 116.696 145.126 121.682 143.02 126.721 144.128 132.101 139.788 136.817 138.179 142.984 132.895 146.572 130.405 152.451 124.726 155.374 121.554 160.92 115.542 163.066 111.485 168.002 105.746 169.12 102.303 173.863 96.663 175.432 93.35 180.268 87.679 181.718 83.982 186.27 78.174 186.665 72.985 189.368 69.631 186.994 65.797 188.479 62.611 185.885 58.677 187.069 55.719 184.218 51.699 185.064 48.982 181.98 44.907 182.525 41.886 179.03 37.268 179.028 34.519 175.314 29.913 174.962 27.455 171.052 22.892 170.356 20.735 166.274 16.92 163.473 23.405 168.019 30.995 168.76 37.165 173.242 44.755 173.983 50.926 178.464 58.516 179.206 64.687 183.687 72.072 184.375 75.886 185.084 78.724 181.837 83.031 182.117 85.558 178.619 89.872 178.498 92.062 174.778 96.349 174.247 98.18 170.335 101.387 170.278 101.944 167.122 105.14 166.866 105.501 163.682 108.675 163.23 108.84 160.028 111.978 159.384 111.823 156.388 114.093 154.684 112.459 152.125 114.759 150.141 113.065 147.616 115.307 145.568 113.528 143.11 115.68 140.971 113.767 138.623 115.817 135.185 113.834 131.71 115.792 128.216 113.657 124.834 115.35 121.201 112.832 118.096 113.922 114.254 110.931 111.592 112.083 108.782 109.482 107.228 110.613 104.402 107.851 103.192 108.136 100.181 105.107 100.129 104.269 97.228 101.331 98.002 100.016 95.04 96.787 95.199 96.066 92.02 92.864 92.15 91.139 89.425 88.687 91.53 85.656 90.467 84.29 93.417 81.185 92.863 79.961 95.765 76.889 95.06 75.609 97.93 72.484 97.444 71.989 100.53 68.979 101.347 69.646 104.433 66.956 105.75 68.236 108.458 65.838 110.239 67.497 112.739 65.223 114.676 66.863 117.184 64.487 119.006 65.945 121.624 63.821 121.869 65.559 123.112 63.43 123.298 65.136 124.587 63.003 124.718 64.674 126.05 62.54 126.121 63.387 128.141"/></g></svg>